<svg width="32" height="30" viewBox="0 0 32 30" fill="none" xmlns="http://www.w3.org/2000/svg">
<path d="M30.4999 9.94368C30.3142 9.94444 30.1308 9.90276 29.9637 9.82183L15.8768 2.63215L1.78991 9.77308C1.48934 9.91529 1.14459 9.93227 0.831507 9.82029C0.518421 9.70831 0.262642 9.47654 0.120439 9.17597C-0.0217648 8.87541 -0.0387442 8.53066 0.0732354 8.21758C0.185215 7.90449 0.416981 7.64871 0.717547 7.50651L15.8768 0L31.036 7.50651C31.3556 7.58116 31.6329 7.77868 31.8078 8.05629C31.9828 8.3339 32.0414 8.66925 31.9709 8.98973C31.9003 9.31022 31.7064 9.59003 31.4311 9.76858C31.1558 9.94712 30.8212 10.01 30.4999 9.94368V9.94368ZM9.78385 22.1296H2.47232V29.4411H9.78385V22.1296ZM19.5326 22.1296H12.221V29.4411H19.5326V22.1296ZM29.2813 22.1296H21.9697V29.4411H29.2813V22.1296ZM24.4069 12.3809H17.0954V19.6924H24.4069V12.3809ZM14.6582 12.3809H7.34667V19.6924H14.6582V12.3809Z" fill="#002884"/>
</svg>
