<svg width="270" height="110" viewBox="0 0 270 110" fill="none" xmlns="http://www.w3.org/2000/svg">
<path d="M0 0H270V110H0V0Z" fill="#E0E0E0"/>
<path d="M247.2 32.8002C252.495 32.8002 256.8 28.4946 256.8 23.2002C256.8 17.9057 252.495 13.6001 247.2 13.6001C241.906 13.6001 237.6 17.9057 237.6 23.2002C237.6 28.4946 241.906 32.8002 247.2 32.8002ZM247.2 18.4001C249.848 18.4001 252 20.5529 252 23.2002C252 25.8474 249.848 28.0002 247.2 28.0002C244.553 28.0002 242.4 25.8474 242.4 23.2002C242.4 20.5529 244.553 18.4001 247.2 18.4001Z" fill="#FF7961"/>
<path d="M245.808 51.554C246.215 51.8441 246.701 52 247.2 52C247.7 52 248.186 51.8441 248.592 51.554C249.322 51.038 266.47 38.6563 266.401 23.2002C266.401 12.6137 257.787 4 247.2 4C236.614 4 228 12.6137 228 23.1882C227.931 38.6563 245.079 51.038 245.808 51.554ZM247.2 8.80004C255.142 8.80004 261.6 15.2585 261.6 23.2122C261.651 33.8634 251.069 43.4275 247.2 46.5643C243.334 43.4251 232.75 33.8586 232.8 23.2002C232.8 15.2585 239.259 8.80004 247.2 8.80004Z" fill="#FF7961"/>
</svg>
