<svg width="270" height="110" viewBox="0 0 270 110" fill="none" xmlns="http://www.w3.org/2000/svg">
<path d="M0 0H270V110H0V0Z" fill="#E0E0E0"/>
<path d="M248.8 27.8C247.209 27.8 245.683 27.1679 244.557 26.0426C243.432 24.9174 242.8 23.3913 242.8 21.8C242.8 20.2087 243.432 18.6826 244.557 17.5574C245.683 16.4321 247.209 15.8 248.8 15.8C250.391 15.8 251.917 16.4321 253.043 17.5574C254.168 18.6826 254.8 20.2087 254.8 21.8C254.8 22.5879 254.645 23.3681 254.343 24.0961C254.042 24.8241 253.6 25.4855 253.043 26.0426C252.485 26.5998 251.824 27.0418 251.096 27.3433C250.368 27.6448 249.588 27.8 248.8 27.8V27.8ZM248.8 5C244.344 5 240.071 6.76999 236.921 9.92061C233.77 13.0712 232 17.3444 232 21.8C232 34.4 248.8 53 248.8 53C248.8 53 265.6 34.4 265.6 21.8C265.6 17.3444 263.83 13.0712 260.679 9.92061C257.529 6.76999 253.256 5 248.8 5V5Z" fill="#3F50B5"/>
</svg>
