<svg width="270" height="110" viewBox="0 0 270 110" fill="none" xmlns="http://www.w3.org/2000/svg">
<path d="M0 0H270V110H0V0Z" fill="#E0E0E0"/>
<path d="M249.516 11.5C244.91 11.5 240.769 8.5 234.337 8.5C231.403 8.5 228.871 9.10769 226.769 9.922C226.978 9.29678 227.046 8.63346 226.97 7.97885C226.725 5.83516 224.953 4.14944 222.8 4.00975C220.179 3.83969 218 5.91541 218 8.5C218 10.1654 218.905 11.6183 220.25 12.3964V50.5C220.25 51.3285 220.922 52 221.75 52H223.25C224.078 52 224.75 51.3285 224.75 50.5V42.6772C228.3 41.0575 231.431 40 236.734 40C241.34 40 245.481 43 251.913 43C257.395 43 261.473 40.8797 263.964 39.2518C265.236 38.4214 266 37.0048 266 35.4864V12.9941C266 9.76357 262.694 7.57835 259.728 8.85813C256.362 10.3102 252.841 11.5 249.516 11.5ZM261.5 35.5C259.458 36.9449 255.798 38.5 251.913 38.5C246.293 38.5 242.35 35.5 236.734 35.5C232.669 35.5 227.698 36.3815 224.75 37.75V16C226.792 14.5551 230.452 13 234.337 13C239.957 13 243.9 16 249.516 16C253.573 16 258.546 14.3719 261.5 13V35.5Z" fill="#3F50B5"/>
</svg>
