<svg width="270" height="110" viewBox="0 0 270 110" fill="none" xmlns="http://www.w3.org/2000/svg">
<path d="M0 0H270V110H0V0Z" fill="#E0E0E0"/>
<path d="M264.037 37.5111C264.085 37.4232 264.124 37.3303 264.153 37.2341C266.255 32.1895 266.573 26.5784 265.054 21.3285C263.535 16.0786 260.269 11.5043 255.797 8.362L255.521 8.20045C251.544 5.45879 246.826 3.99362 241.995 4.00002C237.613 4.00159 233.315 5.20265 229.567 7.47299C225.819 9.74333 222.764 12.9963 220.733 16.8793C218.702 20.7622 217.773 25.127 218.047 29.5003C218.32 33.8736 219.786 38.0887 222.284 41.6884V41.7346L222.469 41.9885C224.344 44.6022 226.726 46.8124 229.472 48.4877C232.218 50.163 235.273 51.2693 238.455 51.7408C241.637 52.2123 244.882 52.0393 247.996 51.2323C251.11 50.4252 254.03 49.0005 256.582 47.0428L256.905 46.789C260.003 44.3234 262.451 41.1384 264.037 37.5111ZM255.728 42.9578L254.459 41.6884C253.995 41.2189 253.413 40.8838 252.774 40.7191L247.835 39.4267L248.389 35.6878L255.405 32.7568L260.16 37.0957C259.04 39.296 257.54 41.2807 255.728 42.9578ZM241.995 7.6927C245.828 7.69057 249.583 8.77923 252.82 10.8315L253.051 15.4935L247.927 21.4018L240.657 22.3711L236.133 19.0939C235.724 18.7987 235.26 18.5894 234.768 18.4783C234.276 18.3673 233.767 18.3568 233.271 18.4476C232.776 18.5479 232.306 18.7466 231.89 19.0321C231.474 19.3176 231.119 19.6839 230.847 20.1093L226.254 27.2639C225.88 27.8587 225.681 28.5462 225.677 29.2487L225.631 37.5803L224.477 38.2727C222.641 35.1619 221.677 31.6144 221.684 28.0024C221.69 22.6178 223.832 17.4555 227.64 13.648C231.448 9.84054 236.61 7.69881 241.995 7.6927ZM226.647 41.2961L227.547 40.7422C228.084 40.4113 228.528 39.9501 228.839 39.4013C229.15 38.8525 229.317 38.234 229.324 37.6034L229.37 29.2718L233.963 22.0942L238.487 25.3714C239.264 25.9214 240.22 26.1602 241.164 26.0407L248.412 25.0483C249.309 24.9335 250.132 24.4893 250.72 23.802L255.844 17.8937C256.46 17.1781 256.774 16.2515 256.721 15.3089L256.675 13.9703C260.294 17.7446 262.312 22.7732 262.306 28.0024C262.308 29.8279 262.06 31.6451 261.568 33.403L257.898 30.0334C257.379 29.5619 256.738 29.2466 256.047 29.1241C255.357 29.0016 254.646 29.0768 253.997 29.341L246.958 32.2721C246.371 32.5176 245.857 32.9096 245.465 33.4107C245.073 33.9118 244.816 34.5052 244.719 35.1339L244.165 38.8728C244.037 39.775 244.244 40.6926 244.745 41.4533C245.247 42.214 246.009 42.7654 246.888 43.004L251.851 44.2964L252.774 45.2196C248.667 47.789 243.776 48.8057 238.985 48.0862C234.194 47.3667 229.818 44.9585 226.647 41.2961Z" fill="#F44336"/>
</svg>
