<svg width="270" height="110" viewBox="0 0 270 110" fill="none" xmlns="http://www.w3.org/2000/svg">
<path d="M0 0H270V110H0V0Z" fill="#E0E0E0"/>
<path d="M256.16 40.936C255.536 39.016 253.736 37.6 251.6 37.6H249.2V30.4C249.2 29.7635 248.947 29.153 248.497 28.7029C248.047 28.2529 247.437 28 246.8 28H232.4V23.2H237.2C237.837 23.2 238.447 22.9471 238.897 22.4971C239.347 22.047 239.6 21.4365 239.6 20.8V16H244.4C245.673 16 246.894 15.4943 247.794 14.5941C248.694 13.6939 249.2 12.473 249.2 11.2V10.216C256.232 13.048 261.2 19.936 261.2 28C261.2 32.992 259.28 37.528 256.16 40.936ZM239.6 47.032C230.12 45.856 222.8 37.792 222.8 28C222.8 26.512 222.992 25.072 223.304 23.704L234.8 35.2V37.6C234.8 38.873 235.306 40.0939 236.206 40.9941C237.106 41.8943 238.327 42.4 239.6 42.4V47.032ZM242 4C238.848 4 235.727 4.62078 232.816 5.82689C229.904 7.033 227.258 8.80083 225.029 11.0294C220.529 15.5303 218 21.6348 218 28C218 34.3652 220.529 40.4697 225.029 44.9706C227.258 47.1992 229.904 48.967 232.816 50.1731C235.727 51.3792 238.848 52 242 52C248.365 52 254.47 49.4714 258.971 44.9706C263.471 40.4697 266 34.3652 266 28C266 24.8483 265.379 21.7274 264.173 18.8156C262.967 15.9038 261.199 13.258 258.971 11.0294C256.742 8.80083 254.096 7.033 251.184 5.82689C248.273 4.62078 245.152 4 242 4V4Z" fill="#3F50B5"/>
</svg>
